<?xml version="1.0" encoding="UTF-8" standalone="no"?>
<svg
   viewBox="0 0 28.008718 34.431011"
   version="1.1"
   id="svg30"
   sodipodi:docname="rust.svg"
   width="28.008718"
   height="34.431011"
   inkscape:version="1.2 (dc2aeda, 2022-05-15)"
   xmlns:inkscape="http://www.inkscape.org/namespaces/inkscape"
   xmlns:sodipodi="http://sodipodi.sourceforge.net/DTD/sodipodi-0.dtd"
   xmlns="http://www.w3.org/2000/svg"
   xmlns:svg="http://www.w3.org/2000/svg"
   xmlns:rdf="http://www.w3.org/1999/02/22-rdf-syntax-ns#"
   xmlns:cc="http://creativecommons.org/ns#"
   xmlns:dc="http://purl.org/dc/elements/1.1/">
  <sodipodi:namedview
     id="namedview32"
     pagecolor="#ffffff"
     bordercolor="#666666"
     borderopacity="1.0"
     inkscape:showpageshadow="2"
     inkscape:pageopacity="0.0"
     inkscape:pagecheckerboard="0"
     inkscape:deskcolor="#d1d1d1"
     showgrid="false"
     inkscape:zoom="5.90625"
     inkscape:cx="12.783069"
     inkscape:cy="-0.16931217"
     inkscape:window-width="1250"
     inkscape:window-height="906"
     inkscape:window-x="1"
     inkscape:window-y="38"
     inkscape:window-maximized="0"
     inkscape:current-layer="svg30" />
  <defs
     id="defs24">
    <radialGradient
       id="a"
       cx="16"
       cy="16"
       r="14"
       gradientTransform="matrix(0.8660254,-0.5,0.3,0.51961524,-4.6577035,13.684296)"
       gradientUnits="userSpaceOnUse">
      <stop
         offset="0"
         stop-color="#7d7d7d"
         id="stop9" />
      <stop
         offset="0.267"
         stop-color="#7e7c7a"
         id="stop11" />
      <stop
         offset="0.45"
         stop-color="#817871"
         id="stop13" />
      <stop
         offset="0.608"
         stop-color="#867162"
         id="stop15" />
      <stop
         offset="0.753"
         stop-color="#8d684c"
         id="stop17" />
      <stop
         offset="0.886"
         stop-color="#965c30"
         id="stop19" />
      <stop
         offset="1"
         stop-color="#a04f12"
         id="stop21" />
    </radialGradient>
  </defs>
  <title
     id="title26">file_type_rust</title>
  <path
     d="m 13.122296,3.2982965 a 0.832,0.832 0 1 1 0.832,0.832 0.832,0.832 0 0 1 -0.832,-0.832 M 3.1982965,10.832296 a 0.832,0.832 0 1 1 0.832,0.832 0.832,0.832 0 0 1 -0.832,-0.832 m 19.8559995,0.039 a 0.832,0.832 0 1 1 0.832,0.832 0.832,0.832 0 0 1 -0.832,-0.832 m -17.4509995,1.14 a 0.76,0.76 0 0 0 0.386,-1 l -0.369,-0.835 h 1.452 v 6.545 h -2.93 a 10.246,10.246 0 0 1 -0.332,-3.911 z m 6.0739995,0.161 v -1.929 h 3.458 c 0.179,0 1.261,0.206 1.261,1.016 0,0.672 -0.83,0.913 -1.513,0.913 z m -4.7209995,10.387 a 0.832,0.832 0 1 1 0.832,0.832 0.832,0.832 0 0 1 -0.832,-0.832 m 12.3309995,0.039 a 0.832,0.832 0 1 1 0.832,0.832 0.832,0.832 0 0 1 -0.832,-0.832 m 0.257,-1.887 a 0.759,0.759 0 0 0 -0.9,0.584 l -0.418,1.949 a 10.246,10.246 0 0 1 -8.5449995,-0.041 l -0.417,-1.949 a 0.758,0.758 0 0 0 -0.9,-0.583 l -1.721,0.37 a 10.246,10.246 0 0 1 -0.89,-1.049 h 8.3739995 c 0.095,0 0.158,-0.017 0.158,-0.1 v -2.966 c 0,-0.086 -0.063,-0.1 -0.158,-0.1 h -2.45 v -1.881 h 2.649 a 1.665,1.665 0 0 1 1.629,1.412 c 0.105,0.413 0.336,1.757 0.494,2.187 0.157,0.483 0.8,1.447 1.482,1.447 h 4.323 a 10.246,10.246 0 0 1 -0.949,1.1 z m 4.65,-7.821 a 10.246,10.246 0 0 1 0.022,1.779 h -1.051 c -0.105,0 -0.148,0.069 -0.148,0.172 v 0.483 c 0,1.136 -0.641,1.384 -1.2,1.447 -0.535,0.06 -1.128,-0.224 -1.2,-0.551 a 3.616,3.616 0 0 0 -1.671,-2.808 c 1.03,-0.654 2.1,-1.619 2.1,-2.911 a 3.293,3.293 0 0 0 -1.608,-2.6999995 4.562,4.562 0 0 0 -2.2,-0.724 H 6.3652965 a 10.246,10.246 0 0 1 5.7329995,-3.239 l 1.282,1.344 a 0.758,0.758 0 0 0 1.073,0.025 l 1.434,-1.372 a 10.246,10.246 0 0 1 7.015,5 l -0.982,2.2169995 a 0.761,0.761 0 0 0 0.386,1 z m 2.448,0.036 -0.033,-0.343 1.011,-0.943 a 0.421,0.421 0 0 0 -0.134,-0.676 l -1.288,-0.483 -0.1,-0.334 0.806,-1.1199995 a 0.421,0.421 0 0 0 -0.263,-0.636 l -1.363,-0.222 -0.164,-0.306 0.573,-1.257 a 0.419,0.419 0 0 0 -0.382,-0.573 l -1.383,0.048 -0.224,-0.264 0.318,-1.347 a 0.421,0.421 0 0 0 -0.487,-0.487 l -1.348,0.315 -0.266,-0.219 0.049,-1.381 a 0.421,0.421 0 0 0 -0.572,-0.383 l -1.257,0.573 -0.306,-0.164 -0.222,-1.363 a 0.421,0.421 0 0 0 -0.636,-0.263 l -1.121,0.806 -0.333,-0.1 -0.483,-1.29300002 a 0.421,0.421 0 0 0 -0.675,-0.135 l -0.943,1.01200002 -0.343,-0.033 -0.728,-1.17700002 a 0.421,0.421 0 0 0 -0.688,0 l -0.728,1.17700002 -0.343,0.033 -0.943,-1.01200002 a 0.421,0.421 0 0 0 -0.675,0.135 l -0.487,1.28700002 -0.333,0.1 -1.1199995,-0.8 a 0.421,0.421 0 0 0 -0.636,0.263 l -0.222,1.363 -0.306,0.164 -1.258,-0.573 a 0.42,0.42 0 0 0 -0.572,0.383 l 0.048,1.383 -0.266,0.217 -1.347,-0.316 a 0.421,0.421 0 0 0 -0.487,0.487 l 0.316,1.348 -0.218,0.265 -1.382,-0.048 a 0.422,0.422 0 0 0 -0.383,0.573 l 0.573,1.257 -0.164,0.306 -1.363,0.222 a 0.421,0.421 0 0 0 -0.263,0.636 l 0.806,1.1199995 -0.1,0.334 -1.29300002,0.483 a 0.421,0.421 0 0 0 -0.134,0.676 l 1.01100002,0.943 -0.033,0.343 -1.17700002,0.728 a 0.421,0.421 0 0 0 0,0.688 l 1.17700002,0.728 0.033,0.343 -1.01100002,0.943 a 0.421,0.421 0 0 0 0.134,0.675 l 1.29300002,0.483 0.1,0.334 -0.806,1.121 a 0.421,0.421 0 0 0 0.264,0.636 l 1.363,0.222 0.164,0.307 -0.573,1.257 a 0.421,0.421 0 0 0 0.383,0.573 l 1.383,-0.048 0.219,0.266 -0.317,1.348 a 0.42,0.42 0 0 0 0.487,0.486 l 1.345,-0.319 0.266,0.218 -0.049,1.382 a 0.42,0.42 0 0 0 0.572,0.382 l 1.257,-0.573 0.306,0.164 0.222,1.362 a 0.421,0.421 0 0 0 0.636,0.264 l 1.1199995,-0.807 0.334,0.1 0.483,1.292 a 0.421,0.421 0 0 0 0.675,0.134 l 0.943,-1.011 0.343,0.034 0.728,1.177 a 0.422,0.422 0 0 0 0.688,0 l 0.728,-1.177 0.343,-0.034 0.943,1.011 a 0.421,0.421 0 0 0 0.675,-0.134 l 0.483,-1.292 0.334,-0.1 1.12,0.807 a 0.421,0.421 0 0 0 0.636,-0.264 l 0.222,-1.362 0.306,-0.164 1.257,0.573 a 0.42,0.42 0 0 0 0.572,-0.382 l -0.048,-1.384 0.265,-0.218 1.347,0.317 a 0.42,0.42 0 0 0 0.487,-0.486 l -0.312,-1.346 0.218,-0.266 1.383,0.048 a 0.421,0.421 0 0 0 0.382,-0.573 l -0.573,-1.257 0.164,-0.307 1.363,-0.222 a 0.42,0.42 0 0 0 0.263,-0.636 l -0.806,-1.12 0.1,-0.334 1.293,-0.483 a 0.42,0.42 0 0 0 0.134,-0.675 l -1.011,-0.943 0.033,-0.343 1.177,-0.728 a 0.421,0.421 0 0 0 0,-0.688 z"
     style="fill:url(#a)"
     id="path28" />
  <g
     aria-label="Rust"
     transform="scale(0.83290945,1.2006107)"
     id="text192"
     style="font-weight:bold;font-size:6.4px;line-height:1.25;font-family:Flow;-inkscape-font-specification:'Flow, Bold';text-align:center;text-anchor:middle;fill:#aa4400">
    <path
       d="m 10.67187,27.109915 c 0,-0.4416 -0.1856,-0.864 -0.4096,-1.0688 l -0.9023997,0.384 c 0.1024,0.1408 0.1536,0.3136 0.1536,0.4736 0,0.32 -0.2112,0.48 -0.4736,0.48 -0.2688001,0 -0.5120001,-0.1536 -0.6784001,-0.32 -0.2496,-0.2304 -0.4928,-0.3328 -0.768,-0.3776 0,0 0,-0.0128 0,-0.0256 0.7936,0 1.4272001,-0.3328 1.4272001,-1.0368 0,-0.8384 -1.1328001,-1.2096 -2.9824001,-1.2096 h -0.6976 c -0.6528,0.0192 -1.792,0.0256 -2.4384,0.0256 -0.6528,0 -1.7920001,-0.0064 -2.44480008,-0.0256 v 0.8768 l 1.70239998,0.1152 v 2.2208 l -1.70239998,0.1088 v 0.8768 c 0.75519998,-0.0128 2.07360008,-0.0256 2.82880008,-0.0256 0.7488,0 2.0608,0.0128 2.816,0.0256 v -0.8768 l -2.0096,-0.1088 v -0.6976 h 1.0304 c 0.7296,0 1.1264,0.1856 1.5104,0.7232 0.4288,0.6464 1.0048,1.0176 2.048,1.0176 1.4271998,0 1.9903998,-0.5056 1.9903998,-1.5552 z m -3.5583998,-1.3056 c 0,0.3136 -0.384,0.4352 -1.6,0.416 l -1.4208,-0.0192 v -0.8 l 1.4464,-0.0256 c 1.1904,-0.0192 1.5744,0.1344 1.5744,0.4288 z"
       style="font-family:Zapata;-inkscape-font-specification:'Zapata Bold'"
       id="path2453" />
    <path
       d="m 19.977464,28.607515 v -0.8768 l -1.4528,-0.1088 v -2.3616 c -0.4544,0.0128 -1.2352,0.0256 -1.6896,0.0256 -0.448,0 -1.2352,-0.0128 -1.6896,-0.0256 v 0.8768 l 1.792,0.1088 0.032,0.4352 c -0.4224,0.6144 -1.1712,0.9728 -1.9136,0.9728 -0.6016,0 -1.1776,-0.16 -1.1776,-0.8128 v -1.5808 c -0.4224,0.0128 -1.1584,0.0256 -1.5808,0.0256 -0.4224,0 -1.1584,-0.0128 -1.5808,-0.0256 v 0.8768 l 1.5744,0.1088 v 0.7616 c 0,1.2224 0.8256,1.6704 2.368,1.6704 0.928,0 1.76,-0.288 2.2912,-0.896 l -0.0448,0.8256 c 0.416,-0.0128 1.1264,-0.0256 1.536,-0.0256 0.4096,0 1.1264,0.0128 1.536,0.0256 z"
       style="font-family:Zapata;-inkscape-font-specification:'Zapata Bold'"
       id="path2455" />
    <path
       d="m 27.049465,27.506715 c 0,-0.8768 -1.024,-1.1264 -3.0592,-1.1264 -1.5232,0 -1.7472,-0.0192 -1.7472,-0.1216 0,-0.1408 0.2368,-0.2688 1.6,-0.2688 1.0176,0 1.7216,0.1216 2.4704,0.4224 h 0.5184 l 0.096,-1.5168 h -0.9024 l -0.2624,0.7232 c -0.4608,-0.2816 -1.2096,-0.4352 -2.1632,-0.4352 -1.9776,0 -2.6496,0.5696 -2.6496,1.2352 0,0.8448 1.0368,1.1584 3.0976,1.1584 1.216,0 1.5104,-0.0128 1.5104,0.096 0,0.1408 -0.2432,0.2688 -1.4784,0.2688 -1.5104,0 -2.3488,-0.2496 -2.9312,-0.704 h -0.6464 l -0.16,1.344 h 0.9536 l 0.1152,-0.48 c 0.3776,0.3008 1.3696,0.576 2.5024,0.576 2.272,0 3.136,-0.3328 3.136,-1.1712 z"
       style="font-family:Zapata;-inkscape-font-specification:'Zapata Bold'"
       id="path2457" />
    <path
       d="m 33.615855,26.873115 -0.9152,-0.1984 c -0.1216,0.5888 -0.64,0.8448 -1.344,0.8448 -0.5696,0 -0.96,-0.16 -0.9792,-0.608 l -0.032,-0.7296 2.3744,0.064 v -0.992 l -2.3744,0.064 0.064,-1.088 c -0.2176,0.0192 -0.5248,0.032 -0.8064,0.032 -0.288,0 -0.5952,-0.0128 -0.8128,-0.032 v 1.088 l -1.4336,-0.064 v 0.992 l 1.4336,-0.064 v 0.7552 c 0,1.248 0.7232,1.7408 2.3616,1.7408 1.76,0 2.5856,-0.5696 2.464,-1.8048 z"
       style="font-family:Zapata;-inkscape-font-specification:'Zapata Bold'"
       id="path2459" />
  </g>
  <metadata
     id="metadata999">
    <rdf:RDF>
      <cc:Work
         rdf:about="">
        <dc:title>file_type_rust</dc:title>
      </cc:Work>
    </rdf:RDF>
  </metadata>
</svg>
