<svg id="Color" height="512" viewBox="0 0 64 64" width="512" xmlns="http://www.w3.org/2000/svg"><path d="m63 23.17-15 4.9 5.12-10.86c-.92 4.91 3.32 5.1 3.32 5.1z" fill="#ffba08"/><path d="m56.44 22.31s-4.24-.19-3.32-5.1l-.966 2.049a16.139 16.139 0 0 1 1.463 6.976l9.383-3.065z" fill="#faa307"/><path d="m48 28.07 15-4.9c-5.83 4-3.3 5.65-3.3 5.65-8.52 5.16 2.76 9.16 3.28 9.34l-8.35-1.96-8.22-1.93-10.09-2.38z" fill="#faa307"/><path d="m62.98 38.16-8.35-1.96-2.34-.55c-1.631-1.338-2.629-3.121-.731-5.165a6.831 6.831 0 0 0 1.641-3.209 3.2 3.2 0 0 1 .477-1.056l9.323-3.05c-5.83 4-3.3 5.65-3.3 5.65-8.52 5.16 2.76 9.16 3.28 9.34z" fill="#f48c06"/><path d="m63 38.17-15.89 3.55 7.5 6.69-16.6-7.59 16.6-4.53.02-.09 8.35 1.96z" fill="#9d0208"/><path d="m47.11 41.72 7.5 6.69-8.36-3.82-1.512-1.878a1.765 1.765 0 0 1 .85-2.793l10.692-3.329 6.7 1.57.02.01z" fill="#69140e"/><path d="m54.63 36.2-.02.09-16.6 4.53h-.01l-6.09-2.79 14.5-3.76z" fill="#dc2f02"/><path d="m54.61 48.41-12.1 1.61-4.51-9.2h.01z" fill="#d00000"/><path d="m53.12 17.21-5.12 10.86-11.68 3.82 6.13-9.25c.88 1.67 10.67-5.43 10.67-5.43z" fill="#f48c06"/><path d="m49.02 12.81.03-.01c-5.47 6.33-7.03 9.06-6.6 9.84l-6.13 9.25-7.97 2.6-.02-.04c1.27-3.33 2.58-6.58 3.87-9.66z" fill="#e85d04"/><path d="m49.02 12.81-16.82 11.98v-.01c5.46-13.07 10.57-23.16 10.79-23.6l.01-.01-.08 6.4c.35 7.41 5.58 5.45 6.1 5.24z" fill="#faa307"/><path d="m36.32 31.89 10.09 2.38-14.5 3.76h-.01l-4.19-1.92-.02-.01c.22-.55.43-1.1.64-1.65l.02.04z" fill="#e85d04"/><path d="m42.51 50.02.56 3.56-7.62-3.87-3.55-11.68h.01l6.09 2.79z" fill="#9d0208"/><path d="m38 5.17 4.99-3.99c-.22.44-5.33 10.53-10.79 23.6l-2.2-20.61s2 6 8 1z" fill="#ffba08"/><path d="m31.9 38.03 3.55 11.68-.25 5.66-8.8-12.16-.84-1.16.01-.05q1.035-2.97 2.12-5.9l.02.01z" fill="#d00000"/><path d="m54.61 48.41-12.1 1.61-2.02-4.13 6.67-.89z" fill="#9d0208"/><path d="m43.07 53.58-7.62-3.87-.89-2.93 2.3 1.167a1.841 1.841 0 0 0 2.65-1.927l.98-.13 2.02 4.13z" fill="#69140e"/><path d="m34.56 46.78.89 2.93-.25 5.66-2.99-4.14z" fill="#9d0208"/><path d="m30 4.17 2.2 20.61v.01c-1.29 3.08-2.6 6.33-3.87 9.66l-4.06-8.81 2.76-9.92c.91.17 1.94-2.63 2.97-11.55z" fill="#f48c06"/><path d="m24.27 25.64 4.06 8.81c-.21.55-.42 1.1-.64 1.65l-4.82-2.18v-.01l-3.25-11.19 4.62 3.03z" fill="#e85d04"/><path d="m22.87 33.92 4.82 2.18q-1.08 2.925-2.12 5.9l-.01.05-1.11.07-16.45 1.05 4-4-.06-.02.06-.15z" fill="#9d0208"/><path d="m27.03 15.72-2.76 9.92-4.52-9.81 4.25-11.66s1.29 11.22 3.03 11.55z" fill="#e85d04"/><path d="m25.56 42.05.84 1.16-5.29 19.48c-.19.51-1.61.46-3.16-.12s-2.65-1.46-2.46-1.98l8.96-18.47z" fill="#be7e4e"/><path d="m26.4 43.21-5.29 19.48c-.19.51-1.61.46-3.16-.12s-2.65-1.46-2.46-1.98l.62-1.28c1.31.61 2.48.76 2.72.32l7.07-17.11z" fill="#995b3f"/><path d="m19.75 15.83 4.52 9.81-.03.11-4.62-3.03-6.12-4.01-11.46-7.52c.69.37 10.89 5.64 8.96-4.02 0 0 3 1 2-6z" fill="#faa307"/><path d="m24 4.17-4.25 11.66-6.75-14.66 5 4s3 3 6-1z" fill="#f48c06"/><path d="m22.87 33.91v.01l-10.87 5.08-.06.15-7.94-2.98 13.17-4.84z" fill="#d00000"/><path d="m19.62 22.72 3.25 11.19-5.7-2.58-3.67-12.62z" fill="#dc2f02"/><path d="m13.5 18.71 3.67 12.62-15.67-7.1 8.5.94-8-14 .04.02z" fill="#e85d04"/><path d="m17.17 31.33-13.17 4.84 3-2-6-10 .5.06z" fill="#9d0208"/><g fill="#472b3c"><path d="m15.948 9.402h11.569v1.999h-11.569z" transform="matrix(.342 -.94 .94 .342 4.527 27.268)"/><path d="m63.32 37.226c-1.429-.485-5.563-2.322-5.785-4.34-.135-1.232 1.385-2.428 2.683-3.216a.994.994 0 0 0 .5-.826.962.962 0 0 0 -.438-.844.423.423 0 0 1 -.128-.355c.014-.316.3-1.517 3.413-3.649a1 1 0 0 0 -.434-1.816l-6.641-.875a2.983 2.983 0 0 1 -1.97-.986 3.582 3.582 0 0 1 -.416-2.928 1 1 0 0 0 -1.571-.994c-3.3 2.394-7.331 4.879-8.991 5.4.4-.908 1.76-3.137 6.277-8.357a1 1 0 0 0 -1.16-1.568 3.744 3.744 0 0 1 -3.06-.046c-.995-.618-1.578-2.107-1.681-4.245l.082-6.395a1 1 0 0 0 -1.625-.794l-5.016 4.013c-1.692 1.409-3.183 1.987-4.309 1.672a3.739 3.739 0 0 1 -2.1-2.221 1 1 0 0 0 -1.941.2c-.791 6.858-1.516 9.365-1.913 10.275-.739-1.575-1.633-6.225-2.1-10.275a1 1 0 0 0 -1.796-.483 3.587 3.587 0 0 1 -2.439 1.673 3.065 3.065 0 0 1 -2.054-.78.944.944 0 0 0 -.082-.074l-5-4a1 1 0 0 0 -1.615.922c.524 3.669-.146 4.6-.364 4.8a.4.4 0 0 1 -.33.113 1 1 0 0 0 -1.3 1.145c.3 1.5.448 3.45-.558 4.192-1.44 1.061-5.048-.214-6.983-1.267a1 1 0 0 0 -1.347 1.375l7.028 12.29-7.046-.783a.99.99 0 0 0 -.952.454 1 1 0 0 0 -.015 1.055l5.509 9.182-2.207 1.471a1 1 0 0 0 .2 1.768l6.546 2.455-2.9 2.9a1 1 0 0 0 -.2 1.119.988.988 0 0 0 .974.586l14.743-.94-8.254 17.009c-.149.4-.232 1.2.884 2.1a7.988 7.988 0 0 0 2.162 1.173 7.537 7.537 0 0 0 2.513.528 1.871 1.871 0 0 0 1.961-1.09l4.74-17.456 7.578 10.46a1 1 0 0 0 .809.413.984.984 0 0 0 .288-.042 1 1 0 0 0 .711-.915l.177-4.1 6.234 3.163a1 1 0 0 0 1.441-1.045l-.4-2.552 11.087-1.47a1 1 0 0 0 .534-1.737l-6.045-5.395 13.986-3.124a1 1 0 0 0 .1-1.923zm-5.02-8.689c-2.005 1.424-2.93 2.957-2.753 4.567a4.593 4.593 0 0 0 1.349 2.6l-16.881-3.971 18.9-6.174a3.75 3.75 0 0 0 -.762 2.15 2.471 2.471 0 0 0 .147.828zm-23.422 9.754 11.541-3 4.307 1.015-12.64 3.448zm-11.172-5.091-2.37-8.162 2.225 1.462 3.684 8-.1.266zm5.367 2.108 7.287-2.38 5.886 1.386-10.246 2.66-3.029-1.386c.029-.093.067-.188.102-.281zm27.237-12.008 2.2.291-8.618 2.809 2.617-5.552a4.243 4.243 0 0 0 .454.728 4.946 4.946 0 0 0 3.347 1.724zm-5.692-3.123-3.338 7.079-8.543 2.79 4.09-6.169c1.065.036 3.201-.645 7.791-3.703zm-6.057-6.636a4.512 4.512 0 0 0 2.007.64c-4.268 5.114-5.3 7.2-5.221 8.31l-5.674 8.559-5.673 1.85c1-2.558 2.011-5.062 3.015-7.467l7.565-5.382a1 1 0 0 0 -1.16-1.63l-4.917 3.5c2.967-6.912 5.706-12.743 7.442-16.337l-.026 2.036c.141 2.935 1.029 4.926 2.642 5.918zm-12.069-5.541c1.821.519 3.89-.174 6.133-2.044l1.5-1.2c-1.722 3.569-4.414 9.3-7.337 16.1l-1.429-13.375a4.3 4.3 0 0 0 1.133.519zm-2.662 4 1.349 12.64c-.975 2.337-1.96 4.766-2.931 7.25l-2.916-6.331 2.5-8.984c.675-.343 1.331-1.423 1.998-4.575zm-8.943-4.758a4.519 4.519 0 0 0 2.375-.907c.85 6.3 1.831 8.779 2.625 9.756l-1.849 6.657-8.361-18.148 1.666 1.333a5.008 5.008 0 0 0 3.544 1.309zm-10.241 5.93c1.3-.955 1.8-2.661 1.515-5.081a2.4 2.4 0 0 0 .749-.429 3.492 3.492 0 0 0 1.082-1.944l7.992 17.352-13.934-9.129a4.458 4.458 0 0 0 2.596-.769zm.222 11.505-5.936-10.388 13.833 9.063 2.543 8.76-3.3-1.5-1.718-5.891a1 1 0 0 0 -1.92.558l1.23 4.246-7.95-3.607 2.24.249a1 1 0 0 0 .978-1.49zm-7.504 1.493 11.172 5.067-6.669 2.45c0-.009 0-.02-.011-.029zm3.51 10.012 10.258-3.768 3.35 1.52-8.729 4.078zm5.833 3.7a.994.994 0 0 0 .13-.168l10.042-4.691 3.56 1.614q-.822 2.22-1.607 4.463l-14.251.908zm7.547 22.164a5.617 5.617 0 0 1 -1.953-.407 5.531 5.531 0 0 1 -1.738-.969l8.525-17.561.221.3zm14.073-9.591-7.654-10.568q.776-2.217 1.591-4.42l2.813 1.286 3.363 11.089zm1.953-3.437-2.78-9.156 3.76 1.718 4.2 8.575.061-.03v.046l.255 1.634zm6.811-.084-2.96-6.039 10.905 4.986zm3.356-6.464 2.558 2.283-8.079-3.694 13.88-3.787 3.723.877-11.629 2.597a1 1 0 0 0 -.449 1.722z"/></g></svg>