<svg id="Color" height="512" viewBox="0 0 64 64" width="512" xmlns="http://www.w3.org/2000/svg"><g fill="#dcc"><path d="m19.18 9.81c2.17.7 7.1 1.19 12.82 1.19 1.04 0 2.05-.02 3.02-.05l-1.14 3.07c-.61-.01-1.24-.02-1.88-.02-6.63 0-12.2.67-12.2 1.5a38.59 38.59 0 0 0 -1.25-5.06z"/><path d="m44.29 15.03c-.03.16-.06.33-.09.5-.03-.47-1.94-.92-4.61-1.19l1.42-3.81c2.64-.32 4.45-.77 4.88-1.29a29.828 29.828 0 0 0 -1.6 5.79z"/><path d="m18 61a17.8 17.8 0 0 1 10-7l.03-.03a3.46 3.46 0 0 0 2.47 1.03h3a3.46 3.46 0 0 0 2.47-1.03l.03.03a17.8 17.8 0 0 1 10 7c0 1.1-6.27 2-14 2s-14-.9-14-2z"/></g><path d="m46 61c0 1.1-6.27 2-14 2-2.66 0-5.13-.11-7.25-.29a43.521 43.521 0 0 0 7.85-1.71 72.513 72.513 0 0 0 8.03-.44 1 1 0 0 0 .5-1.79 15.667 15.667 0 0 0 -1.44-.98c.63-.38 1.23-.79 1.82-1.22a16.048 16.048 0 0 1 4.49 4.43z" fill="#c1aeae"/><path d="m37 51.5a3.517 3.517 0 0 1 -3.5 3.5h-3a3.5 3.5 0 0 1 0-7h3a3.5 3.5 0 0 1 3.5 3.5z" fill="#dcc"/><path d="m35 44a2.006 2.006 0 0 1 2 2 2.015 2.015 0 0 1 -2 2h-6a2.006 2.006 0 0 1 -2-2 2.015 2.015 0 0 1 2-2z" fill="#dcc"/><path d="m21.28 7.71a69.914 69.914 0 0 1 10.72-.71c1.56 0 3.05.04 4.45.1l-1.43 3.85c-.97.03-1.98.05-3.02.05-5.72 0-10.65-.49-12.82-1.19l.81-.81z" fill="#f2f2f2"/><path d="m46 9s-.04.08-.11.24c-.43.52-2.24.97-4.88 1.29l1.08-2.92c2.42.36 3.91.85 3.91 1.39z" fill="#f2f2f2"/><path d="m44.29 15.03a11.5 11.5 0 0 1 -.79 22.97h-1.7a11.42 11.42 0 0 0 .71-1.73 10.729 10.729 0 0 0 .44-2.27h.55a7.5 7.5 0 0 0 .18-15c.15-1.29.33-2.44.52-3.46z" fill="#dcc"/><path d="m42.95 34a10.729 10.729 0 0 1 -.44 2.27l-1.77.01a7.212 7.212 0 0 0 -3.32-3.48 6.24 6.24 0 0 0 -3.47-.28 6.276 6.276 0 0 0 2.89-1.93 7.287 7.287 0 0 0 1.21-4.78 8.033 8.033 0 0 0 -3.19 1.23l3.83-10.3c3.14-.26 5.42-.66 5.5-1.17-.18 1.01-.36 2.15-.51 3.43a95.479 95.479 0 0 0 -.68 12v2c0 .34-.02.67-.05 1z" fill="#d00000"/><path d="m31.12 33.84a6.243 6.243 0 0 0 -1.92 2.72 7.268 7.268 0 0 0 .52 4.9 7.309 7.309 0 0 0 3.28-3.67 7.25 7.25 0 0 0 -.51-4.89v-.01h.02l-.01.01a7.31 7.31 0 0 0 3.37 3.59 7.3 7.3 0 0 0 4.92-.1s-.02-.04-.05-.11l1.77-.01a11.42 11.42 0 0 1 -.71 1.73 11 11 0 0 1 -20.8-5v-2a86.964 86.964 0 0 0 -1.2-15.5c0 .83 5.57 1.5 12.2 1.5.26 0 .52 0 .77-.01l-3.05 8.2a8.66 8.66 0 0 0 -.98-.48 7.287 7.287 0 0 0 .06 4.93 5.4 5.4 0 0 0 .97 1.42 5.416 5.416 0 0 0 -1.68-.37 7.276 7.276 0 0 0 -4.59 1.79 7.267 7.267 0 0 0 4.4 2.2 6.2 6.2 0 0 0 3.22-.84z" fill="#d00000"/><path d="m40.53 35.86a5.034 5.034 0 0 1 -.27.7 6.841 6.841 0 0 1 -4.39-.07 5.094 5.094 0 0 1 -1.21-.74 11.039 11.039 0 0 1 -1.54 1.52 4.371 4.371 0 0 1 -.12.52 7.309 7.309 0 0 1 -3.28 3.67 8.151 8.151 0 0 1 -.71-2.44 10.693 10.693 0 0 1 -4.02-.36 9.014 9.014 0 0 1 -1.99-5.66v-2q0-5.085-.39-9.49a2.493 2.493 0 0 1 2.66-2.73c1.77.14 3.98.22 6.73.22.64-.05 3.68-.21 6.21-.35a3 3 0 0 1 2.33.91 2.882 2.882 0 0 1 .76 1.44 89.173 89.173 0 0 1 -4.55 11.59 5.745 5.745 0 0 1 .67.21 6.955 6.955 0 0 1 3.11 3.06z" fill="#dc2f02"/><path d="m33.7 28.12a5.012 5.012 0 0 0 -.82 1.52 5.443 5.443 0 0 0 -.44-1.67 5.149 5.149 0 0 0 -.8-1.22l3.65-9.81c1.22-.04 2.37-.11 3.4-.2l-3.83 10.3a5.362 5.362 0 0 0 -1.16 1.08z" fill="#ef4625"/><path d="m35.29 16.94-3.65 9.81a7.61 7.61 0 0 0 -1.92-1.56l3.05-8.2c.87 0 1.71-.02 2.52-.05z" fill="#e85d04"/><path d="m41.01 10.53-1.42 3.81-.9 2.4c-1.03.09-2.18.16-3.4.2l2.28-6.11c1.25-.07 2.41-.18 3.44-.3z" fill="#f4a651"/><path d="m33.88 14.02 1.14-3.07q1.335-.03 2.55-.12l-2.28 6.11c-.81.03-1.65.05-2.52.05z" fill="#e8a25d"/><path d="m41.51 1.35c1.41.53 2.43 1.3 1.68 3.31l-1.1 2.95-1.08 2.92c-1.03.12-2.19.23-3.44.3l3.57-9.6a2.654 2.654 0 0 1 .37.12z" fill="#f48c06"/><path d="m41.14 1.23-3.57 9.6q-1.215.09-2.55.12l1.43-3.85 1.62-4.34c.68-1.84 1.8-1.93 3.07-1.53z" fill="#d58936"/><path d="m34.656 35.755a8.06 8.06 0 0 1 -2.156-2.855l.01-.01h-.02v.01a7.625 7.625 0 0 1 .627 4.373 11.071 11.071 0 0 0 1.539-1.518z" fill="#d00000"/><path d="m44.19 15.57c-.18 1.01-.36 2.15-.51 3.43a95.479 95.479 0 0 0 -.68 12v2c0 .34-.02.67-.05 1a10.729 10.729 0 0 1 -.44 2.27 11.42 11.42 0 0 1 -.71 1.73 11.006 11.006 0 0 1 -17.58 2.78 10.774 10.774 0 0 1 -2.21-3.2 18.458 18.458 0 0 0 2.98 1.08 8.544 8.544 0 0 0 .64.71 9.015 9.015 0 0 0 14.39-2.28 5.054 5.054 0 0 0 .24-.53 5.4 5.4 0 0 0 .53-.17s-.02-.04-.05-.11c-.04-.09-.11-.24-.21-.42a1.458 1.458 0 0 0 .07-.19 9 9 0 0 0 .36-1.82c.02-.3.04-.57.04-.85v-2c0-3.24.12-6.28.36-9.08a2.84 2.84 0 0 0 -.06-.92c.6-1.68 1.22-3.33 1.9-4.9.61-.16.96-.34.99-.53z" fill="#9d0208"/><path d="m32.5 32.9.01-.01h-.02v.01a7.685 7.685 0 0 1 .655 4.252 8.982 8.982 0 0 0 1.849-1.152 7.864 7.864 0 0 1 -2.494-3.1z" fill="#d00000"/><path d="m41.36 21.92c-.24 2.8-.36 5.84-.36 9.08v2c0 .28-.02.55-.04.85a9 9 0 0 1 -.36 1.82 1.458 1.458 0 0 1 -.07.19 6.955 6.955 0 0 0 -3.11-3.06 5.745 5.745 0 0 0 -.67-.21 89.173 89.173 0 0 0 4.55-11.59 2.84 2.84 0 0 1 .06.92z" fill="#d00000"/><path d="m40.26 36.56a5.054 5.054 0 0 1 -.24.53 9.015 9.015 0 0 1 -14.39 2.28 8.544 8.544 0 0 1 -.64-.71 10.693 10.693 0 0 0 4.02.36 8.151 8.151 0 0 0 .71 2.44 7.309 7.309 0 0 0 3.28-3.67 4.371 4.371 0 0 0 .12-.52 11.039 11.039 0 0 0 1.54-1.52 5.094 5.094 0 0 0 1.21.74 6.841 6.841 0 0 0 4.39.07z" fill="#d00000"/><path d="m19.99 9v-8a8 8 0 0 1 5.66 2.34l-4.37 4.37z" fill="#d58936"/><path d="m19.99 9h-8a7.98 7.98 0 0 1 2.34-5.66z" fill="#d58936"/><path d="m19.99 1v8l-5.66-5.66a8 8 0 0 1 5.66-2.34z" fill="#f48c06"/><path d="m19.99 9-.81.81-.63.63-4.22 4.22a7.98 7.98 0 0 1 -2.34-5.66z" fill="#f48c06"/><path d="m33.95 32.52a8.109 8.109 0 0 1 .984-.1c.1-.155.189-.319.283-.479a7.822 7.822 0 0 1 -1.267.579z" fill="#d00000"/><path d="m32.5 32.9.01-.01h-.02v.01a8.68 8.68 0 0 1 .607 1.885c.106-.111.212-.223.315-.339a8.166 8.166 0 0 1 -.912-1.546z" fill="#d00000"/><path d="m33.94 32.52a8.25 8.25 0 0 0 -1.37.35.01.01 0 0 1 -.01.01.433.433 0 0 0 -.05.01h-.02a8.222 8.222 0 0 0 .39-3.25 5.012 5.012 0 0 1 .82-1.52 5.362 5.362 0 0 1 1.16-1.08 8.033 8.033 0 0 1 3.19-1.23 7.287 7.287 0 0 1 -1.21 4.78 6.276 6.276 0 0 1 -2.89 1.93z" fill="#f48c06"/><path d="m36.84 30.59a6.276 6.276 0 0 1 -2.89 1.93h-.01a8.25 8.25 0 0 0 -1.37.35.01.01 0 0 1 -.01.01.433.433 0 0 0 -.05.01h-.02a7.4 7.4 0 0 0 .32-1.35c.04-.01.09-.01.13-.02h.01a6.276 6.276 0 0 0 2.89-1.93 6.427 6.427 0 0 0 1.22-3.56 6.855 6.855 0 0 1 .99-.22 7.287 7.287 0 0 1 -1.21 4.78z" fill="#e85d04"/><path d="m40.74 36.28c.03.07.05.11.05.11a7.3 7.3 0 0 1 -4.92.1 7.31 7.31 0 0 1 -3.37-3.59l.01-.01a.109.109 0 0 0 .05-.01.01.01 0 0 0 .01-.01 6.939 6.939 0 0 0 1.37-.35h.01a6.24 6.24 0 0 1 3.47.28 7.212 7.212 0 0 1 3.32 3.48z" fill="#e85d04"/><path d="m40.79 36.39a7.3 7.3 0 0 1 -4.92.1 7.31 7.31 0 0 1 -3.37-3.59l.01-.01a.109.109 0 0 0 .05-.01.01.01 0 0 0 .01-.01 5.863 5.863 0 0 0 .7-.14 6.254 6.254 0 0 0 2.6 2.24 6.808 6.808 0 0 0 4.19.13 8.473 8.473 0 0 1 .68 1.18c.03.07.05.11.05.11z" fill="#dc2f02"/><path d="m32.49 32.9a7.25 7.25 0 0 1 .51 4.89 7.309 7.309 0 0 1 -3.28 3.67 7.268 7.268 0 0 1 -.52-4.9 6.243 6.243 0 0 1 1.92-2.72 8.346 8.346 0 0 0 1.36-.94z" fill="#e85d04"/><path d="m33 37.79a7.309 7.309 0 0 1 -3.28 3.67 7.974 7.974 0 0 1 -.62-1.87 6.2 6.2 0 0 0 1.9-2.7 6.046 6.046 0 0 0 .1-3.03l.02-.02a8.346 8.346 0 0 0 1.36-.94h.01a7.25 7.25 0 0 1 .51 4.89z" fill="#dc2f02"/><path d="m31.12 33.84a6.2 6.2 0 0 1 -3.22.84 7.267 7.267 0 0 1 -4.4-2.2 7.276 7.276 0 0 1 4.59-1.79 5.416 5.416 0 0 1 1.68.37h.01a8.167 8.167 0 0 0 2.7 1.83 8.3 8.3 0 0 0 -1.36.95z" fill="#f48c06"/><path d="m32.48 32.89a8.3 8.3 0 0 0 -1.36.95 6.2 6.2 0 0 1 -3.22.84 7.267 7.267 0 0 1 -4.4-2.2 7.361 7.361 0 0 1 .86-.64 5.837 5.837 0 0 0 2.54.78 6.2 6.2 0 0 0 3.22-.84c.08-.07.15-.13.23-.19a8.138 8.138 0 0 0 2.13 1.3z" fill="#e85d04"/><path d="m32.88 29.64a8.222 8.222 0 0 1 -.39 3.25h-.01a8.167 8.167 0 0 1 -2.7-1.83h-.01a5.4 5.4 0 0 1 -.97-1.42 7.287 7.287 0 0 1 -.06-4.93 8.66 8.66 0 0 1 .98.48 7.61 7.61 0 0 1 1.92 1.56 5.149 5.149 0 0 1 .8 1.22 5.443 5.443 0 0 1 .44 1.67z" fill="#e85d04"/><path d="m32.49 32.89h-.01a8.261 8.261 0 0 1 -1.94-1.14 8.452 8.452 0 0 0 .34-3.11 5.443 5.443 0 0 0 -.44-1.67 5.149 5.149 0 0 0 -.8-1.22 6.621 6.621 0 0 0 -.95-.9c.03-.09.05-.14.05-.14a8.66 8.66 0 0 1 .98.48 7.61 7.61 0 0 1 1.92 1.56 5.149 5.149 0 0 1 .8 1.22 5.443 5.443 0 0 1 .44 1.67 8.222 8.222 0 0 1 -.39 3.25z" fill="#dc2f02"/><path d="m40.63 60.56a72.513 72.513 0 0 1 -8.03.44 33.493 33.493 0 0 0 7.09-3.21 15.667 15.667 0 0 1 1.44.98 1 1 0 0 1 -.5 1.79z" fill="#dcc"/><path d="m39.69 57.79a33.493 33.493 0 0 1 -7.09 3.21h-.6a75.463 75.463 0 0 1 -8.64-.44 1 1 0 0 1 -.49-1.79 16.932 16.932 0 0 1 4.78-2.56 5.531 5.531 0 0 0 2.85.79h3a5.531 5.531 0 0 0 2.85-.79 16.461 16.461 0 0 1 3.34 1.58z" fill="#eaeaea"/><path d="m30.5 53a1.447 1.447 0 0 1 -1.044-.433 1.473 1.473 0 0 1 -.456-1.067 1.516 1.516 0 0 1 1.5-1.5h3a1.5 1.5 0 0 1 1.5 1.5 1.516 1.516 0 0 1 -1.5 1.5z" fill="#eaeaea"/><path d="m29 46.5a.507.507 0 0 1 -.5-.5.459.459 0 0 1 .137-.336.481.481 0 0 1 .363-.164h6a.507.507 0 0 1 .5.5.459.459 0 0 1 -.137.336.481.481 0 0 1 -.363.164z" fill="#eaeaea"/><path d="m43.1 13.366c-.427-.109-.909-.2-1.445-.284l.445-1.182c.528-.075 1-.153 1.419-.234-.135.503-.275 1.068-.419 1.7z" fill="#f4eaea"/><path d="m20.9 13.383q-.2-.9-.419-1.714a66.944 66.944 0 0 0 11.519.831q.426 0 .846 0v.009q-.417 0-.842-.005c-5.915-.004-9.238.37-11.104.879z" fill="#f4eaea"/><path d="m44.009 36.487q.145-.516.247-1.018a9 9 0 0 0 1.107-17.769q.073-.5.154-.987a10 10 0 0 1 -1.508 19.779z" fill="#eaeaea"/><path d="m22.6 18.707c-.965 0-.4 2.166-.146 4.166s-.234 4.167.733 4.167 2.218-2.04 1.968-4.04-1.585-4.293-2.555-4.293z" fill="#f75b3c"/><path d="m23.043 27.565a.5.5 0 0 0 0 1 .5.5 0 0 0 0-1z" fill="#f75b3c"/><path d="m44.2 15.54a.037.037 0 0 1 -.01.03c-.08.51-2.36.91-5.5 1.17l.9-2.4c2.67.27 4.58.72 4.61 1.19z" fill="#e85d04"/><path d="m32.77 16.99c-.25.01-.51.01-.77.01-6.63 0-12.2-.67-12.2-1.5s5.57-1.5 12.2-1.5c.64 0 1.27.01 1.88.02z" fill="#e85d04"/><path d="m27 56c-1.287 0-5.289 3-4 3s5.289-3 4-3z" fill="#fff"/><path d="m29.842 49.5a1 1 0 0 0 0 2 1 1 0 0 0 0-2z" fill="#fff"/><path d="m42.376 39h1.124a12.5 12.5 0 0 0 2-24.837 24.44 24.44 0 0 1 1.379-4.678 1.069 1.069 0 0 0 .121-.485c0-1.052-1.025-1.693-3.582-2.178l.682-1.822.091-.242a1 1 0 0 0 .028-.179 3.112 3.112 0 0 0 -.249-2.661 4.175 4.175 0 0 0 -2.125-1.473c-.112-.045-.238-.081-.361-.121l-.009-.006h-.015a3.764 3.764 0 0 0 -2.184-.149 3.11 3.11 0 0 0 -1.932 1.851.874.874 0 0 0 -.1.155l-.089.239-1.355 3.666c-1.235-.05-2.5-.08-3.8-.08-2.87 0-5.621.126-7.95.353l2.3-2.3a1 1 0 0 0 0-1.414 8.977 8.977 0 0 0 -6.34-2.639c-.01 0-.01 0-.022 0s-.014 0-.022 0a8.983 8.983 0 0 0 -8.966 8.968.3.3 0 0 0 -.012.032.3.3 0 0 0 .012.032 8.97 8.97 0 0 0 2.63 6.332 1 1 0 0 0 1.414 0l3.033-3.033c.237.883.487 1.961.727 3.26a.945.945 0 0 0 .05.284 86.341 86.341 0 0 1 1.146 15.125v2a12 12 0 0 0 6.913 10.852 2.98 2.98 0 0 0 .326 4.565 4.487 4.487 0 0 0 3.261 7.583h3a4.46 4.46 0 0 0 2.66-.89 17.571 17.571 0 0 1 8.482 5.708c-1.475.508-5.733 1.182-12.642 1.182s-11.175-.676-12.646-1.184a17.1 17.1 0 0 1 6.346-4.908 1 1 0 0 0 -.829-1.82 18.137 18.137 0 0 0 -7.727 6.4 1 1 0 0 0 -.144.512c0 2.61 9.4 3 15 3s15-.39 15-3a1 1 0 0 0 -.143-.515 18.47 18.47 0 0 0 -9.317-7.04 4.413 4.413 0 0 0 -.779-5.028 2.98 2.98 0 0 0 .326-4.565 12.05 12.05 0 0 0 5.289-4.852zm-10.376-23a70.278 70.278 0 0 1 -9.016-.5 70.278 70.278 0 0 1 9.016-.5c.162 0 .315 0 .476.005l-.369.995c-.037 0-.069 0-.107 0zm-17.612-2.813a6.966 6.966 0 0 1 -1.317-3.187h4.5zm0-8.374 3.186 3.187h-4.5a6.966 6.966 0 0 1 1.314-3.187zm6.6-2.73a6.96 6.96 0 0 1 3.187 1.317l-3.187 3.186zm-2 4.5-3.188-3.183a6.961 6.961 0 0 1 3.186-1.316zm13.012 5.417c.5 0 1.044-.005 1.6-.012l-.381 1.025c-.4-.006-.8-.013-1.217-.013-6.509 0-9.806.458-11.479.995-.254-1.208-.51-2.195-.745-2.991a60.041 60.041 0 0 0 12.222.996zm12.561 8.1a6.492 6.492 0 0 1 -.561 12.875v-1.975a97.987 97.987 0 0 1 .561-10.9zm-3.645-4.589c-.231.03-.489.06-.762.09l.067-.181c.248.025.479.056.695.087zm.775-4.042a21.761 21.761 0 0 0 2.54-.5c-.235.793-.5 1.794-.754 3.025a16.922 16.922 0 0 0 -2.54-.5zm-3.676 4.322c-.425.033-.853.063-1.293.087l1.512-4.064q.655-.043 1.3-.1zm-3.394.173c-.145 0-.288.009-.436.012l1.5-4.034.439-.017zm-1.182 2.017c.148 0 .289-.006.435-.009l-2 5.374a.969.969 0 0 0 1.817.676l2.272-6.108c.433-.018.864-.037 1.284-.063l-3.19 8.578a6.214 6.214 0 0 0 -.9.833 7.265 7.265 0 0 0 -2.257-2.462zm-1.885 10.4a5.48 5.48 0 0 1 .29 3.105 5.491 5.491 0 0 1 -2.164-2.256 5.477 5.477 0 0 1 -.29-3.1 5.492 5.492 0 0 1 2.164 2.242zm4.527 1.615a5.232 5.232 0 0 1 -2.289 1.561 8.651 8.651 0 0 0 .066-1.737 4.32 4.32 0 0 1 .6-1.095 5.482 5.482 0 0 1 2.628-1.68 5.484 5.484 0 0 1 -1.005 2.942zm-8.036 1.669a4.283 4.283 0 0 1 1.22.259 8.64 8.64 0 0 0 1.36 1.076 5.23 5.23 0 0 1 -2.675.714 5.482 5.482 0 0 1 -2.892-1.164 5.356 5.356 0 0 1 2.987-.894zm2.075 5.2a5.215 5.215 0 0 1 1.653-2.283c.086-.05.166-.1.245-.149a5.437 5.437 0 0 1 .064 3.066 5.487 5.487 0 0 1 -1.882 2.477 5.492 5.492 0 0 1 -.08-3.119zm3.84-3.318c.081-.025.163-.051.248-.081a5.228 5.228 0 0 1 2.836.235 5.481 5.481 0 0 1 2.313 2.093 5.482 5.482 0 0 1 -3.113-.193 5.436 5.436 0 0 1 -2.284-2.062zm3.84-1.641a5.843 5.843 0 0 0 -.64-.221 5.826 5.826 0 0 0 .449-.5 8.246 8.246 0 0 0 1.4-5.487.968.968 0 0 0 -1.082-.848 8.4 8.4 0 0 0 -1.329.309l2.78-7.475a29.956 29.956 0 0 0 3.528-.48 93.924 93.924 0 0 0 -.906 13.796v2a9.952 9.952 0 0 1 -.409 2.809 8.082 8.082 0 0 0 -3.791-3.903zm16.2-5.406a10.512 10.512 0 0 1 -10.5 10.5h-.2a11.907 11.907 0 0 0 .522-2.016 8.489 8.489 0 0 0 .988-16.873c.1-.7.2-1.37.308-1.981a10.529 10.529 0 0 1 8.882 10.37zm-9.988-17.5c-.4.1-.921.2-1.518.3l.215-.579c.539.101.97.195 1.303.279zm-1.663-6.016a1.543 1.543 0 0 1 -.07 1.337l-1.963 5.279q-.615.067-1.306.126l2.69-7.232a1.657 1.657 0 0 1 .649.49zm-2.549-.948-2.913 7.835-.442.025 2.532-6.809c.343-.917.702-1.018.823-1.051zm-7.8 5.964c1.043 0 2.061.022 3.061.055l-.713 1.916c-.748.018-1.525.029-2.348.029a66.071 66.071 0 0 1 -10.848-.75l.6-.6a70.021 70.021 0 0 1 10.248-.65zm-1.5 46a2.5 2.5 0 0 1 0-5h3a2.5 2.5 0 0 1 0 5zm4.5-9a1 1 0 0 1 0 2h-6a1 1 0 0 1 0-2zm-3-2a10.011 10.011 0 0 1 -10-10v-2a93.505 93.505 0 0 0 -.913-13.833c1.748.447 4.838.8 10.276.83l-2.175 5.849-.105-.042a.969.969 0 0 0 -1.251.573 8.42 8.42 0 0 0 -.037 5.358 8.61 8.61 0 0 0 -4.943 2.024.969.969 0 0 0 -.064 1.374 8.239 8.239 0 0 0 5.072 2.518c.087 0 .175.006.261.006.14 0 .272-.025.41-.035a5.729 5.729 0 0 0 -.256.64 8.239 8.239 0 0 0 .578 5.633.967.967 0 0 0 1.309.422 8.23 8.23 0 0 0 3.764-4.23 5.967 5.967 0 0 0 .272-1.461 6.022 6.022 0 0 0 1.293.754 6.53 6.53 0 0 0 2.533.479 9.251 9.251 0 0 0 2.966-.509 10 10 0 0 1 -8.99 5.65z" fill="#472b3c"/></svg>