<svg id="filloutline" height="512" viewBox="0 0 512 512" width="512" xmlns="http://www.w3.org/2000/svg"><g><path d="m400 360h55.596c9.045 0 16.404-7.359 16.404-16.404v-79.191c0-9.045-7.359-16.404-16.404-16.404h-55.596v-32h55.596c26.69 0 48.404 21.714 48.404 48.404v79.191c0 26.69-21.714 48.404-48.404 48.404h-55.596z" fill="#b03555"/></g><path d="m350.154 228.467-14.154-7.462 80.657-183.638c5.215-11.874 19.409-16.83 30.882-10.782 11.472 6.048 15.404 20.559 8.554 31.571z" fill="#369cb4"/><path d="m353.717 448h-195.434c-38.816 0-70.283-31.467-70.283-70.283v-177.717h336v177.717c0 38.816-31.467 70.283-70.283 70.283z" fill="#e6a345"/><path d="m88 248h336v64h-336z" fill="#e6456f"/><path d="m357.228 488h-202.456c-32.806 0-64.574-11.502-89.776-32.503l-56.996-47.497c26.424 10.57 54.622 16 83.081 16h329.837c28.459 0 56.657-5.43 83.081-16l-56.996 47.497c-25.201 21.001-56.969 32.503-89.775 32.503z" fill="#b03555"/><g><path d="m168 280c-4.418 0-8-3.582-8-8v-80c0-4.418 3.582-8 8-8s8 3.582 8 8v80c0 4.418-3.582 8-8 8z" fill="#6e4e21"/></g><path d="m384 344c0 26.51-24 48-24 48s-24-21.49-24-48 24-48 24-48 24 21.49 24 48z" fill="#c2cf3e"/><g><path d="m360 392c-4.418 0-8-3.582-8-8v-32c0-4.418 3.582-8 8-8s8 3.582 8 8v32c0 4.418-3.582 8-8 8z" fill="#6e4e21"/></g><path d="m328.941 348.235c23.391 12.475 31.059 43.765 31.059 43.765s-30.256 11.063-53.647-1.412-31.059-43.765-31.059-43.765 30.256-11.063 53.647 1.412z" fill="#d7e645"/><g><path d="m352.935 396.237c-1.271 0-2.559-.304-3.758-.943l-28.235-15.059c-3.898-2.079-5.373-6.925-3.294-10.823 2.079-3.899 6.925-5.374 10.823-3.294l28.235 15.059c3.898 2.079 5.373 6.925 3.294 10.823-1.439 2.699-4.206 4.237-7.065 4.237z" fill="#6e4e21"/></g><g><path d="m255.997 176c-1.87 0-3.747-.651-5.265-1.979-.702-.613-17.197-15.296-18.633-38.181-.972-15.491 5.058-30.684 17.921-45.154 12.696-14.283 16.77-28.65 12.107-42.706-3.63-10.942-11.347-17.914-11.424-17.983-3.286-2.932-3.601-7.979-.685-11.28 2.913-3.3 7.934-3.639 11.248-.736.702.613 17.197 15.296 18.634 38.181.972 15.491-5.059 30.684-17.922 45.155-9.926 11.166-14.606 22.445-13.911 33.522 1.007 16.049 13.078 27.035 13.199 27.142 3.325 2.909 3.662 7.964.753 11.288-1.58 1.806-3.795 2.731-6.022 2.731z" fill="#c2cf3e"/></g><g><path d="m183.997 176c-1.87 0-3.747-.651-5.265-1.979-.702-.613-17.197-15.296-18.633-38.181-.972-15.491 5.058-30.684 17.921-45.154 9.926-11.167 14.606-22.446 13.911-33.523-1.007-16.049-13.078-27.035-13.199-27.142-3.325-2.909-3.662-7.964-.753-11.288 2.908-3.325 7.964-3.662 11.288-.753.702.613 17.197 15.296 18.633 38.181.972 15.491-5.058 30.684-17.921 45.154-9.926 11.167-14.606 22.446-13.911 33.523 1.007 16.049 13.078 27.035 13.199 27.142 3.325 2.909 3.662 7.964.753 11.288-1.581 1.807-3.796 2.732-6.023 2.732z" fill="#c2cf3e"/></g><g><path d="m327.997 176c-1.87 0-3.747-.651-5.265-1.979-.702-.613-17.197-15.296-18.633-38.181-.972-15.491 5.058-30.684 17.921-45.154 9.926-11.167 14.606-22.446 13.911-33.523-1.007-16.049-13.078-27.035-13.199-27.142-3.325-2.909-3.662-7.964-.753-11.288 2.908-3.325 7.964-3.662 11.288-.753.702.613 17.197 15.296 18.633 38.181.972 15.491-5.058 30.684-17.921 45.154-9.926 11.167-14.606 22.446-13.911 33.523 1.007 16.049 13.078 27.035 13.199 27.142 3.325 2.909 3.662 7.964.753 11.288-1.581 1.807-3.796 2.732-6.023 2.732z" fill="#c2cf3e"/></g><path d="m208 384h-80v-96l16-16h48l16 16z" fill="#369cb4"/><path d="m128 320h80v40h-80z" fill="#c2cf3e"/><g><path d="m510.871 403.903c-2.015-3.38-6.188-4.793-9.842-3.331-25.268 10.107-51.862 15.285-79.06 15.416 2.827-5.013 5.104-10.372 6.778-15.988h26.848c31.102 0 56.405-25.303 56.405-56.404v-79.191c0-31.102-25.303-56.405-56.404-56.405h-23.596v-8c0-4.418-3.582-8-8-8h-41.742l80.628-129.618c4.434-7.128 5.718-15.862 3.522-23.965s-7.713-14.994-15.139-18.909-16.231-4.572-24.155-1.806c-7.925 2.768-14.406 8.763-17.781 16.448l-69.331 157.85h-164.002c0-4.418-3.582-8-8-8s-8 3.582-8 8h-72c-4.418 0-8 3.582-8 8v177.717c0 13.895 3.649 26.948 10.026 38.271-27.196-.131-53.788-5.309-79.055-15.415-3.652-1.463-7.827-.05-9.842 3.331-2.016 3.38-1.273 7.724 1.75 10.242l56.996 47.496c26.587 22.156 60.289 34.358 94.897 34.358h202.455c34.608 0 68.311-12.202 94.897-34.358l56.996-47.496c3.025-2.519 3.767-6.863 1.751-10.243zm-78.871-147.903h23.596c4.634 0 8.404 3.771 8.404 8.404v79.191c0 4.634-3.771 8.404-8.404 8.404h-23.596zm0 121.717v-9.717h23.596c13.457 0 24.404-10.947 24.404-24.404v-79.191c0-13.458-10.947-24.405-24.404-24.405h-23.596v-16h23.596c22.279 0 40.404 18.125 40.404 40.404v79.191c0 22.28-18.125 40.405-40.404 40.405h-23.856c.165-2.074.26-4.167.26-6.283zm-8.018-337.133c1.619-3.687 4.604-6.448 8.406-7.775 3.801-1.329 7.855-1.025 11.42.854 3.562 1.877 6.104 5.052 7.156 8.939 1.053 3.887.462 7.91-1.665 11.329l-85.883 138.069h-5.938zm-247.982 167.416h240v32h-240zm0 48h240v48h-38.485c-5.992-8.34-11.677-13.512-12.178-13.96-3.039-2.721-7.635-2.721-10.674 0-.501.448-6.186 5.62-12.178 13.96h-126.485v-16c0-2.122-.843-4.156-2.343-5.657l-16-16c-1.501-1.5-3.535-2.343-5.657-2.343h-16zm184 88c-4.418 0-8 3.582-8 8v5.934c-2.235-2.89-4.751-5.704-7.568-8.318-.277-1.843-.432-3.718-.432-5.616 0-15.239 9.68-29.022 16-36.397 6.323 7.38 16 21.161 16 36.397 0 9.407-3.69 18.253-8 25.385v-17.385c0-4.418-3.582-8-8-8zm-39.059 36.235 15.338 8.18c-8.323.446-17.864-.461-26.162-4.886-13.446-7.172-21.053-22.198-24.586-31.246 9.487-2.105 26.201-4.159 39.646 3.011 8.3 4.427 14.369 11.847 18.634 19.006l-15.34-8.182c-3.898-2.08-8.744-.605-10.823 3.294-2.08 3.899-.605 8.744 3.293 10.823zm-132.254-100.235 11.313 11.313v20.687h-64v-20.687l11.313-11.313zm-52.687 72v-24h64v24zm64 16v8h-64v-8zm-104-160h64v32h-64zm0 48h64v8h-16c-2.122 0-4.156.843-5.657 2.343l-16 16c-1.5 1.501-2.343 3.535-2.343 5.657v16h-24zm0 64h24v40 24c0 4.418 3.582 8 8 8h80c4.418 0 8-3.582 8-8v-24-40h117.306c-2.519 5.809-4.424 12.232-5.063 19.071-25.33-10.614-54.401-.234-55.696.238-3.83 1.4-5.993 5.457-5.023 9.418.349 1.419 8.821 34.923 35.064 48.919 9.782 5.218 20.439 6.874 30.033 6.874 8.698 0 17.216-1.415 25.61-3.595 10.705-2.78 17.563-13.651 22.995-22.508 6.331-10.325 10.774-22.182 10.774-34.417 0-8.688-2.189-16.814-5.306-24h29.306v57.717c0 14.436-4.961 27.717-13.239 38.283h-293.547c-8.267-10.569-13.214-23.855-13.214-38.283zm345.883 129.351c-23.718 19.764-53.782 30.649-84.655 30.649h-202.456c-30.873 0-60.938-10.885-84.655-30.649l-26.76-22.3c15.626 3.291 31.578 4.949 47.724 4.949h329.838c16.146 0 32.098-1.658 47.724-4.949z"/><path d="m232.1 135.84c1.436 22.885 17.931 37.567 18.633 38.181 1.518 1.328 3.395 1.979 5.265 1.979 2.227 0 4.442-.925 6.023-2.732 2.909-3.324 2.572-8.379-.753-11.288-.121-.106-12.192-11.093-13.199-27.142-.695-11.077 3.985-22.356 13.911-33.522 12.863-14.472 18.894-29.664 17.922-45.155-1.437-22.885-17.932-37.567-18.634-38.181-3.314-2.902-8.335-2.563-11.248.736-2.916 3.301-2.602 8.349.685 11.28.077.069 7.794 7.041 11.424 17.983 4.662 14.056.589 28.423-12.107 42.706-12.865 14.471-18.894 29.664-17.922 45.155z"/><path d="m160.1 135.84c1.436 22.885 17.931 37.567 18.633 38.181 1.518 1.328 3.395 1.979 5.265 1.979 2.227 0 4.442-.925 6.023-2.732 2.909-3.324 2.572-8.379-.753-11.288-.121-.106-12.192-11.093-13.199-27.142-.695-11.077 3.985-22.356 13.911-33.523 12.863-14.471 18.893-29.663 17.921-45.154-1.436-22.885-17.931-37.567-18.633-38.181-3.324-2.909-8.38-2.572-11.288.753-2.909 3.324-2.572 8.379.753 11.288.121.106 12.192 11.093 13.199 27.142.695 11.077-3.985 22.356-13.911 33.523-12.864 14.47-18.893 29.663-17.921 45.154z"/><path d="m304.1 135.84c1.436 22.885 17.931 37.567 18.633 38.181 1.518 1.328 3.395 1.979 5.265 1.979 2.227 0 4.442-.925 6.023-2.732 2.909-3.324 2.572-8.379-.753-11.288-.121-.106-12.192-11.093-13.199-27.142-.695-11.077 3.985-22.356 13.911-33.523 12.863-14.471 18.893-29.663 17.921-45.154-1.436-22.885-17.931-37.567-18.633-38.181-3.324-2.909-8.38-2.572-11.288.753-2.909 3.324-2.572 8.379.753 11.288.121.106 12.192 11.093 13.199 27.142.695 11.077-3.985 22.356-13.911 33.523-12.864 14.47-18.893 29.663-17.921 45.154z"/></g></svg>